<?xml version="1.0" encoding="utf-8" standalone="no"?>
<!DOCTYPE svg PUBLIC "-//W3C//DTD SVG 1.1//EN"
  "http://www.w3.org/Graphics/SVG/1.1/DTD/svg11.dtd">
<!-- Created with matplotlib (http://matplotlib.org/) -->
<svg height="720pt" version="1.1" viewBox="0 0 1152 720" width="1152pt" xmlns="http://www.w3.org/2000/svg" xmlns:xlink="http://www.w3.org/1999/xlink">
 <defs>
  <style type="text/css">
*{stroke-linecap:butt;stroke-linejoin:round;}
  </style>
 </defs>
 <g id="figure_1">
  <g id="patch_1">
   <path d="M 0 720 
L 1152 720 
L 1152 0 
L 0 0 
z
" style="fill:#ffffff;"/>
  </g>
  <g id="axes_1">
   <g id="matplotlib.axis_1"/>
   <g id="matplotlib.axis_2"/>
   <g id="patch_2">
    <path d="M 582.722208 135.221057 
C 498.431667 135.221057 416.803529 153.39127 352.388447 186.492759 
C 287.973364 219.594249 244.840568 265.535925 230.678711 316.128439 
L 582.722208 352.661057 
L 582.722208 135.221057 
z
" style="fill:#4c72b0;"/>
   </g>
   <g id="patch_3">
    <path d="M 227.107617 324.03868 
C 217.012753 360.102071 222.027077 397.140115 241.684525 431.710245 
C 261.341973 466.280375 295.014039 497.277284 339.571011 521.819907 
L 579.151114 360.571298 
L 227.107617 324.03868 
z
" style="fill:#55a868;"/>
   </g>
   <g id="patch_4">
    <path d="M 347.423164 526.395275 
C 386.958422 548.171865 434.005355 564.284283 485.10128 573.546646 
C 536.197205 582.809008 590.057032 584.988362 642.716645 579.924304 
L 587.003267 365.146666 
L 347.423164 526.395275 
z
" style="fill:#c44e52;"/>
   </g>
   <g id="patch_5">
    <path d="M 650.335369 579.754457 
C 674.568584 577.424049 698.343017 573.579372 721.281733 568.281383 
C 744.220449 562.983393 766.201576 556.260238 786.876612 548.218512 
L 594.621991 364.976819 
L 650.335369 579.754457 
z
" style="fill:#8172b2;"/>
   </g>
   <g id="patch_6">
    <path d="M 790.502986 546.891288 
C 805.700253 540.980185 820.140352 534.376676 833.699322 527.137449 
C 847.258292 519.898222 859.897222 512.044052 871.507612 503.642363 
L 598.248365 363.649595 
L 790.502986 546.891288 
z
" style="fill:#ccb974;"/>
   </g>
   <g id="patch_7">
    <path d="M 873.491163 502.278951 
C 881.198529 496.701629 888.440429 490.891867 895.189428 484.871675 
C 901.938428 478.851483 908.185995 472.628473 913.908461 466.226218 
L 600.231917 362.286183 
L 873.491163 502.278951 
z
" style="fill:#64b5cd;"/>
   </g>
   <g id="patch_8">
    <path d="M 915.013334 465.001847 
C 920.277833 459.111963 925.092036 453.076954 929.440506 446.916172 
C 933.788977 440.755391 937.667061 434.475429 941.062322 428.096425 
L 601.336791 361.061812 
L 915.013334 465.001847 
z
" style="fill:#4c72b0;"/>
   </g>
   <g id="patch_9">
    <path d="M 941.727563 426.856781 
C 944.945622 420.810704 947.726764 414.681625 950.062974 408.487204 
C 952.399185 402.292782 954.288219 396.038971 955.724635 389.743789 
L 602.002031 359.822168 
L 941.727563 426.856781 
z
" style="fill:#55a868;"/>
   </g>
   <g id="patch_10">
    <path d="M 956.01114 388.490933 
C 957.437669 382.239081 958.416431 375.952372 958.944645 369.648671 
C 959.472859 363.344971 959.550025 357.030254 959.175922 350.722466 
L 602.288537 358.569312 
L 956.01114 388.490933 
z
" style="fill:#c44e52;"/>
   </g>
   <g id="patch_11">
    <path d="M 959.108693 349.50032 
C 958.75706 343.571399 958.007045 337.653724 956.860531 331.762151 
C 955.714016 325.870579 954.171962 320.010044 952.238241 314.195261 
L 602.221307 357.347166 
L 959.108693 349.50032 
z
" style="fill:#8172b2;"/>
   </g>
   <g id="patch_12">
    <path d="M 951.88915 313.113699 
C 950.226305 308.113453 948.274951 303.150388 946.03871 298.23372 
C 943.80247 293.317052 941.282729 288.449825 938.484166 283.641079 
L 601.872216 356.265604 
L 951.88915 313.113699 
z
" style="fill:#ccb974;"/>
   </g>
   <g id="patch_13">
    <path d="M 937.935465 282.694928 
C 935.224874 278.037344 932.254316 273.437371 929.028965 268.903023 
C 925.803614 264.368675 922.325345 259.902587 918.600216 255.512538 
L 601.323515 355.319452 
L 937.935465 282.694928 
z
" style="fill:#64b5cd;"/>
   </g>
   <g id="patch_14">
    <path d="M 917.887968 254.667748 
C 914.448591 250.614457 910.80055 246.628078 906.949262 242.714531 
C 903.097974 238.800985 899.045347 234.962209 894.797399 231.203906 
L 600.611267 354.474662 
L 917.887968 254.667748 
z
" style="fill:#4c72b0;"/>
   </g>
   <g id="patch_15">
    <path d="M 894.040826 230.525377 
C 890.647998 227.523627 887.131778 224.57428 883.495499 221.68013 
C 879.85922 218.78598 876.10403 215.947942 872.233488 213.168704 
L 599.854694 353.796133 
L 894.040826 230.525377 
z
" style="fill:#55a868;"/>
   </g>
   <g id="patch_16">
    <path d="M 871.48101 212.626954 
C 867.811755 209.992252 864.039904 207.411162 860.168669 204.885882 
C 856.297435 202.360603 852.327915 199.891851 848.263491 197.48173 
L 599.102215 353.254383 
L 871.48101 212.626954 
z
" style="fill:#c44e52;"/>
   </g>
   <g id="patch_17">
    <path d="M 847.450952 196.999911 
C 843.386528 194.58979 839.228353 192.238983 834.979969 189.949493 
C 830.731585 187.660003 826.394198 185.432479 821.971502 183.268819 
L 598.289676 352.772564 
L 847.450952 196.999911 
z
" style="fill:#8172b2;"/>
   </g>
   <g id="patch_18">
    <path d="M 818.034038 181.859384 
C 786.554034 166.458817 751.010603 154.420332 712.918573 146.257 
C 674.826543 138.093667 634.734863 133.923128 594.352204 133.923129 
L 594.352212 351.363129 
L 818.034038 181.859384 
z
" style="fill:#ccb974;"/>
   </g>
   <g id="text_1">
    <!-- us -->
    <defs>
     <path d="M 15.328125 52.828125 
L 15.328125 19.34375 
Q 15.328125 14.109375 16.359375 11.21875 
Q 17.390625 8.34375 19.625 7.078125 
Q 21.875 5.8125 26.21875 5.8125 
Q 32.5625 5.8125 36.21875 10.15625 
Q 39.890625 14.5 39.890625 22.21875 
L 39.890625 52.828125 
L 48.6875 52.828125 
L 48.6875 11.28125 
Q 48.6875 2.046875 48.96875 0 
L 40.671875 0 
Q 40.625 0.25 40.578125 1.3125 
Q 40.53125 2.390625 40.453125 3.78125 
Q 40.375 5.171875 40.28125 9.03125 
L 40.140625 9.03125 
Q 37.109375 3.5625 33.125 1.28125 
Q 29.15625 -0.984375 23.25 -0.984375 
Q 14.546875 -0.984375 10.515625 3.34375 
Q 6.5 7.671875 6.5 17.625 
L 6.5 52.828125 
z
" id="LiberationSans-75"/>
     <path d="M 46.390625 14.59375 
Q 46.390625 7.125 40.75 3.0625 
Q 35.109375 -0.984375 24.953125 -0.984375 
Q 15.09375 -0.984375 9.734375 2.265625 
Q 4.390625 5.515625 2.78125 12.40625 
L 10.546875 13.921875 
Q 11.671875 9.671875 15.1875 7.6875 
Q 18.703125 5.71875 24.953125 5.71875 
Q 31.640625 5.71875 34.734375 7.765625 
Q 37.84375 9.8125 37.84375 13.921875 
Q 37.84375 17.046875 35.6875 19 
Q 33.546875 20.953125 28.765625 22.21875 
L 22.46875 23.875 
Q 14.890625 25.828125 11.6875 27.703125 
Q 8.5 29.59375 6.6875 32.28125 
Q 4.890625 34.96875 4.890625 38.875 
Q 4.890625 46.09375 10.03125 49.875 
Q 15.1875 53.65625 25.046875 53.65625 
Q 33.796875 53.65625 38.9375 50.578125 
Q 44.09375 47.515625 45.453125 40.71875 
L 37.546875 39.75 
Q 36.8125 43.265625 33.609375 45.140625 
Q 30.421875 47.015625 25.046875 47.015625 
Q 19.09375 47.015625 16.25 45.203125 
Q 13.421875 43.40625 13.421875 39.75 
Q 13.421875 37.5 14.59375 36.03125 
Q 15.765625 34.578125 18.0625 33.546875 
Q 20.359375 32.515625 27.734375 30.71875 
Q 34.71875 28.953125 37.796875 27.46875 
Q 40.875 25.984375 42.65625 24.171875 
Q 44.4375 22.359375 45.40625 19.984375 
Q 46.390625 17.625 46.390625 14.59375 
z
" id="LiberationSans-73"/>
    </defs>
    <g style="fill:#262626;" transform="translate(332.011553 170.967868)rotate(-310.163862)scale(0.165 -0.165)">
     <use xlink:href="#LiberationSans-75"/>
     <use x="55.615234" xlink:href="#LiberationSans-73"/>
    </g>
   </g>
   <g id="text_2">
    <!-- 22% -->
    <defs>
     <path d="M 5.03125 0 
L 5.03125 6.203125 
Q 7.515625 11.921875 11.109375 16.28125 
Q 14.703125 20.65625 18.65625 24.1875 
Q 22.609375 27.734375 26.484375 30.765625 
Q 30.375 33.796875 33.5 36.8125 
Q 36.625 39.84375 38.546875 43.15625 
Q 40.484375 46.484375 40.484375 50.6875 
Q 40.484375 56.34375 37.15625 59.46875 
Q 33.84375 62.59375 27.9375 62.59375 
Q 22.3125 62.59375 18.671875 59.546875 
Q 15.046875 56.5 14.40625 50.984375 
L 5.421875 51.8125 
Q 6.390625 60.0625 12.421875 64.9375 
Q 18.453125 69.828125 27.9375 69.828125 
Q 38.328125 69.828125 43.921875 64.921875 
Q 49.515625 60.015625 49.515625 50.984375 
Q 49.515625 46.96875 47.671875 43.015625 
Q 45.84375 39.0625 42.234375 35.109375 
Q 38.625 31.15625 28.421875 22.859375 
Q 22.796875 18.265625 19.46875 14.578125 
Q 16.15625 10.890625 14.703125 7.46875 
L 50.59375 7.46875 
L 50.59375 0 
z
" id="LiberationSans-32"/>
     <path d="M 85.359375 21.1875 
Q 85.359375 10.6875 81.390625 5.046875 
Q 77.4375 -0.59375 69.734375 -0.59375 
Q 62.109375 -0.59375 58.21875 4.90625 
Q 54.34375 10.40625 54.34375 21.1875 
Q 54.34375 32.328125 58.078125 37.765625 
Q 61.8125 43.21875 69.921875 43.21875 
Q 77.9375 43.21875 81.640625 37.625 
Q 85.359375 32.03125 85.359375 21.1875 
z
M 25.734375 0 
L 18.171875 0 
L 63.1875 68.796875 
L 70.84375 68.796875 
z
M 19.234375 69.390625 
Q 27 69.390625 30.75 63.921875 
Q 34.515625 58.453125 34.515625 47.609375 
Q 34.515625 37.015625 30.640625 31.296875 
Q 26.765625 25.59375 19.046875 25.59375 
Q 11.328125 25.59375 7.4375 31.25 
Q 3.5625 36.921875 3.5625 47.609375 
Q 3.5625 58.5 7.3125 63.9375 
Q 11.078125 69.390625 19.234375 69.390625 
z
M 78.125 21.1875 
Q 78.125 29.9375 76.234375 33.859375 
Q 74.359375 37.796875 69.921875 37.796875 
Q 65.484375 37.796875 63.5 33.9375 
Q 61.53125 30.078125 61.53125 21.1875 
Q 61.53125 12.84375 63.453125 8.8125 
Q 65.375 4.78125 69.828125 4.78125 
Q 74.125 4.78125 76.125 8.859375 
Q 78.125 12.9375 78.125 21.1875 
z
M 27.34375 47.609375 
Q 27.34375 56.203125 25.484375 60.15625 
Q 23.640625 64.109375 19.234375 64.109375 
Q 14.65625 64.109375 12.703125 60.21875 
Q 10.75 56.34375 10.75 47.609375 
Q 10.75 39.15625 12.703125 35.125 
Q 14.65625 31.109375 19.140625 31.109375 
Q 23.390625 31.109375 25.359375 35.203125 
Q 27.34375 39.3125 27.34375 47.609375 
z
" id="LiberationSans-25"/>
    </defs>
    <g style="fill:#262626;" transform="translate(357.409167 207.764277)scale(0.18 -0.18)">
     <use xlink:href="#LiberationSans-32"/>
     <use x="55.615234" xlink:href="#LiberationSans-32"/>
     <use x="111.230469" xlink:href="#LiberationSans-25"/>
    </g>
   </g>
   <g id="text_3">
    <!-- italian -->
    <defs>
     <path d="M 6.6875 64.0625 
L 6.6875 72.46875 
L 15.484375 72.46875 
L 15.484375 64.0625 
z
M 6.6875 0 
L 6.6875 52.828125 
L 15.484375 52.828125 
L 15.484375 0 
z
" id="LiberationSans-69"/>
     <path d="M 27.046875 0.390625 
Q 22.703125 -0.78125 18.171875 -0.78125 
Q 7.625 -0.78125 7.625 11.1875 
L 7.625 46.4375 
L 1.515625 46.4375 
L 1.515625 52.828125 
L 7.953125 52.828125 
L 10.546875 64.65625 
L 16.40625 64.65625 
L 16.40625 52.828125 
L 26.171875 52.828125 
L 26.171875 46.4375 
L 16.40625 46.4375 
L 16.40625 13.09375 
Q 16.40625 9.28125 17.640625 7.734375 
Q 18.890625 6.203125 21.96875 6.203125 
Q 23.734375 6.203125 27.046875 6.890625 
z
" id="LiberationSans-74"/>
     <path d="M 20.21875 -0.984375 
Q 12.25 -0.984375 8.25 3.21875 
Q 4.25 7.421875 4.25 14.75 
Q 4.25 22.953125 9.640625 27.34375 
Q 15.046875 31.734375 27.046875 32.03125 
L 38.921875 32.234375 
L 38.921875 35.109375 
Q 38.921875 41.546875 36.1875 44.328125 
Q 33.453125 47.125 27.59375 47.125 
Q 21.6875 47.125 19 45.109375 
Q 16.3125 43.109375 15.765625 38.71875 
L 6.59375 39.546875 
Q 8.84375 53.8125 27.78125 53.8125 
Q 37.75 53.8125 42.765625 49.234375 
Q 47.796875 44.671875 47.796875 36.03125 
L 47.796875 13.28125 
Q 47.796875 9.375 48.828125 7.390625 
Q 49.859375 5.421875 52.734375 5.421875 
Q 54 5.421875 55.609375 5.765625 
L 55.609375 0.296875 
Q 52.296875 -0.484375 48.828125 -0.484375 
Q 43.953125 -0.484375 41.71875 2.078125 
Q 39.5 4.640625 39.203125 10.109375 
L 38.921875 10.109375 
Q 35.546875 4.046875 31.078125 1.53125 
Q 26.609375 -0.984375 20.21875 -0.984375 
z
M 22.21875 5.609375 
Q 27.046875 5.609375 30.8125 7.8125 
Q 34.578125 10.015625 36.75 13.84375 
Q 38.921875 17.671875 38.921875 21.734375 
L 38.921875 26.078125 
L 29.296875 25.875 
Q 23.09375 25.78125 19.890625 24.609375 
Q 16.703125 23.4375 14.984375 21 
Q 13.28125 18.5625 13.28125 14.59375 
Q 13.28125 10.296875 15.59375 7.953125 
Q 17.921875 5.609375 22.21875 5.609375 
z
" id="LiberationSans-61"/>
     <path d="M 6.734375 0 
L 6.734375 72.46875 
L 15.53125 72.46875 
L 15.53125 0 
z
" id="LiberationSans-6c"/>
     <path d="M 40.28125 0 
L 40.28125 33.5 
Q 40.28125 38.71875 39.25 41.59375 
Q 38.234375 44.484375 35.984375 45.75 
Q 33.734375 47.015625 29.390625 47.015625 
Q 23.046875 47.015625 19.375 42.671875 
Q 15.71875 38.328125 15.71875 30.609375 
L 15.71875 0 
L 6.9375 0 
L 6.9375 41.546875 
Q 6.9375 50.78125 6.640625 52.828125 
L 14.9375 52.828125 
Q 14.984375 52.59375 15.03125 51.515625 
Q 15.09375 50.4375 15.15625 49.046875 
Q 15.234375 47.65625 15.328125 43.796875 
L 15.484375 43.796875 
Q 18.5 49.265625 22.484375 51.53125 
Q 26.46875 53.8125 32.375 53.8125 
Q 41.0625 53.8125 45.09375 49.484375 
Q 49.125 45.171875 49.125 35.203125 
L 49.125 0 
z
" id="LiberationSans-6e"/>
    </defs>
    <g style="fill:#262626;" transform="translate(199.827974 457.113277)rotate(-19.096845)scale(0.165 -0.165)">
     <use xlink:href="#LiberationSans-69"/>
     <use x="22.216797" xlink:href="#LiberationSans-74"/>
     <use x="50" xlink:href="#LiberationSans-61"/>
     <use x="105.615234" xlink:href="#LiberationSans-6c"/>
     <use x="127.832031" xlink:href="#LiberationSans-69"/>
     <use x="150.048828" xlink:href="#LiberationSans-61"/>
     <use x="205.664062" xlink:href="#LiberationSans-6e"/>
    </g>
   </g>
   <g id="text_4">
    <!-- 16% -->
    <defs>
     <path d="M 7.625 0 
L 7.625 7.46875 
L 25.140625 7.46875 
L 25.140625 60.40625 
L 9.625 49.3125 
L 9.625 57.625 
L 25.875 68.796875 
L 33.984375 68.796875 
L 33.984375 7.46875 
L 50.734375 7.46875 
L 50.734375 0 
z
" id="LiberationSans-31"/>
     <path d="M 51.21875 22.515625 
Q 51.21875 11.625 45.3125 5.3125 
Q 39.40625 -0.984375 29 -0.984375 
Q 17.390625 -0.984375 11.234375 7.65625 
Q 5.078125 16.3125 5.078125 32.8125 
Q 5.078125 50.6875 11.46875 60.25 
Q 17.875 69.828125 29.6875 69.828125 
Q 45.265625 69.828125 49.3125 55.8125 
L 40.921875 54.296875 
Q 38.328125 62.703125 29.59375 62.703125 
Q 22.078125 62.703125 17.9375 55.6875 
Q 13.8125 48.6875 13.8125 35.40625 
Q 16.21875 39.84375 20.5625 42.15625 
Q 24.90625 44.484375 30.515625 44.484375 
Q 40.046875 44.484375 45.625 38.515625 
Q 51.21875 32.5625 51.21875 22.515625 
z
M 42.28125 22.125 
Q 42.28125 29.59375 38.625 33.640625 
Q 34.96875 37.703125 28.421875 37.703125 
Q 22.265625 37.703125 18.484375 34.109375 
Q 14.703125 30.515625 14.703125 24.21875 
Q 14.703125 16.265625 18.625 11.1875 
Q 22.5625 6.109375 28.71875 6.109375 
Q 35.0625 6.109375 38.671875 10.375 
Q 42.28125 14.65625 42.28125 22.125 
z
" id="LiberationSans-36"/>
    </defs>
    <g style="fill:#262626;" transform="translate(257.418527 429.251038)scale(0.18 -0.18)">
     <use xlink:href="#LiberationSans-31"/>
     <use x="55.615234" xlink:href="#LiberationSans-36"/>
     <use x="111.230469" xlink:href="#LiberationSans-25"/>
    </g>
   </g>
   <g id="text_5">
    <!-- mexican -->
    <defs>
     <path d="M 37.5 0 
L 37.5 33.5 
Q 37.5 41.15625 35.390625 44.078125 
Q 33.296875 47.015625 27.828125 47.015625 
Q 22.21875 47.015625 18.9375 42.71875 
Q 15.671875 38.421875 15.671875 30.609375 
L 15.671875 0 
L 6.9375 0 
L 6.9375 41.546875 
Q 6.9375 50.78125 6.640625 52.828125 
L 14.9375 52.828125 
Q 14.984375 52.59375 15.03125 51.515625 
Q 15.09375 50.4375 15.15625 49.046875 
Q 15.234375 47.65625 15.328125 43.796875 
L 15.484375 43.796875 
Q 18.3125 49.421875 21.96875 51.609375 
Q 25.640625 53.8125 30.90625 53.8125 
Q 36.921875 53.8125 40.40625 51.421875 
Q 43.890625 49.03125 45.265625 43.796875 
L 45.40625 43.796875 
Q 48.140625 49.125 52.015625 51.46875 
Q 55.90625 53.8125 61.421875 53.8125 
Q 69.4375 53.8125 73.0625 49.46875 
Q 76.703125 45.125 76.703125 35.203125 
L 76.703125 0 
L 68.015625 0 
L 68.015625 33.5 
Q 68.015625 41.15625 65.90625 44.078125 
Q 63.8125 47.015625 58.34375 47.015625 
Q 52.59375 47.015625 49.390625 42.75 
Q 46.1875 38.484375 46.1875 30.609375 
L 46.1875 0 
z
" id="LiberationSans-6d"/>
     <path d="M 13.484375 24.5625 
Q 13.484375 15.484375 17.234375 10.546875 
Q 21 5.609375 28.21875 5.609375 
Q 33.9375 5.609375 37.375 7.90625 
Q 40.828125 10.203125 42.046875 13.71875 
L 49.75 11.53125 
Q 45.015625 -0.984375 28.21875 -0.984375 
Q 16.5 -0.984375 10.375 6 
Q 4.25 12.984375 4.25 26.765625 
Q 4.25 39.84375 10.375 46.828125 
Q 16.5 53.8125 27.875 53.8125 
Q 51.171875 53.8125 51.171875 25.734375 
L 51.171875 24.5625 
z
M 42.09375 31.296875 
Q 41.359375 39.65625 37.84375 43.484375 
Q 34.328125 47.3125 27.734375 47.3125 
Q 21.34375 47.3125 17.609375 43.03125 
Q 13.875 38.765625 13.578125 31.296875 
z
" id="LiberationSans-65"/>
     <path d="M 39.109375 0 
L 24.90625 21.6875 
L 10.59375 0 
L 1.125 0 
L 19.921875 27.15625 
L 2 52.828125 
L 11.71875 52.828125 
L 24.90625 32.28125 
L 37.984375 52.828125 
L 47.796875 52.828125 
L 29.890625 27.25 
L 48.921875 0 
z
" id="LiberationSans-78"/>
     <path d="M 13.421875 26.65625 
Q 13.421875 16.109375 16.734375 11.03125 
Q 20.0625 5.953125 26.765625 5.953125 
Q 31.453125 5.953125 34.59375 8.484375 
Q 37.75 11.03125 38.484375 16.3125 
L 47.359375 15.71875 
Q 46.34375 8.109375 40.875 3.5625 
Q 35.40625 -0.984375 27 -0.984375 
Q 15.921875 -0.984375 10.078125 6.015625 
Q 4.25 13.03125 4.25 26.46875 
Q 4.25 39.796875 10.109375 46.796875 
Q 15.96875 53.8125 26.90625 53.8125 
Q 35.015625 53.8125 40.359375 49.609375 
Q 45.703125 45.40625 47.078125 38.03125 
L 38.03125 37.359375 
Q 37.359375 41.75 34.5625 44.328125 
Q 31.78125 46.921875 26.65625 46.921875 
Q 19.671875 46.921875 16.546875 42.28125 
Q 13.421875 37.640625 13.421875 26.65625 
z
" id="LiberationSans-63"/>
    </defs>
    <g style="fill:#262626;" transform="translate(464.289283 635.841101)rotate(-73.420598)scale(0.165 -0.165)">
     <use xlink:href="#LiberationSans-6d"/>
     <use x="83.300781" xlink:href="#LiberationSans-65"/>
     <use x="138.916016" xlink:href="#LiberationSans-78"/>
     <use x="188.916016" xlink:href="#LiberationSans-69"/>
     <use x="211.132812" xlink:href="#LiberationSans-63"/>
     <use x="261.132812" xlink:href="#LiberationSans-61"/>
     <use x="316.748047" xlink:href="#LiberationSans-6e"/>
    </g>
   </g>
   <g id="text_6">
    <!-- 14% -->
    <defs>
     <path d="M 43.015625 15.578125 
L 43.015625 0 
L 34.71875 0 
L 34.71875 15.578125 
L 2.296875 15.578125 
L 2.296875 22.40625 
L 33.796875 68.796875 
L 43.015625 68.796875 
L 43.015625 22.515625 
L 52.6875 22.515625 
L 52.6875 15.578125 
z
M 34.71875 58.890625 
Q 34.625 58.59375 33.34375 56.296875 
Q 32.078125 54 31.453125 53.078125 
L 13.8125 27.09375 
L 11.1875 23.484375 
L 10.40625 22.515625 
L 34.71875 22.515625 
z
" id="LiberationSans-34"/>
    </defs>
    <g style="fill:#262626;" transform="translate(477.278823 557.361335)scale(0.18 -0.18)">
     <use xlink:href="#LiberationSans-31"/>
     <use x="55.615234" xlink:href="#LiberationSans-34"/>
     <use x="111.230469" xlink:href="#LiberationSans-25"/>
    </g>
   </g>
   <g id="text_7">
    <!-- canadian -->
    <defs>
     <path d="M 40.09375 8.5 
Q 37.640625 3.421875 33.609375 1.21875 
Q 29.59375 -0.984375 23.640625 -0.984375 
Q 13.625 -0.984375 8.90625 5.75 
Q 4.203125 12.5 4.203125 26.171875 
Q 4.203125 53.8125 23.640625 53.8125 
Q 29.640625 53.8125 33.640625 51.609375 
Q 37.640625 49.421875 40.09375 44.625 
L 40.1875 44.625 
L 40.09375 50.53125 
L 40.09375 72.46875 
L 48.875 72.46875 
L 48.875 10.890625 
Q 48.875 2.640625 49.171875 0 
L 40.765625 0 
Q 40.625 0.78125 40.453125 3.609375 
Q 40.28125 6.453125 40.28125 8.5 
z
M 13.421875 26.46875 
Q 13.421875 15.375 16.34375 10.59375 
Q 19.28125 5.8125 25.875 5.8125 
Q 33.34375 5.8125 36.71875 10.984375 
Q 40.09375 16.15625 40.09375 27.046875 
Q 40.09375 37.546875 36.71875 42.421875 
Q 33.34375 47.3125 25.984375 47.3125 
Q 19.34375 47.3125 16.375 42.40625 
Q 13.421875 37.5 13.421875 26.46875 
z
" id="LiberationSans-64"/>
    </defs>
    <g style="fill:#262626;" transform="translate(724.48291 572.522293)rotate(-290.773219)scale(0.165 -0.165)">
     <use xlink:href="#LiberationSans-63"/>
     <use x="50" xlink:href="#LiberationSans-61"/>
     <use x="105.615234" xlink:href="#LiberationSans-6e"/>
     <use x="161.230469" xlink:href="#LiberationSans-61"/>
     <use x="216.845703" xlink:href="#LiberationSans-64"/>
     <use x="272.460938" xlink:href="#LiberationSans-69"/>
     <use x="294.677734" xlink:href="#LiberationSans-61"/>
     <use x="350.292969" xlink:href="#LiberationSans-6e"/>
    </g>
   </g>
   <g id="text_8">
    <!-- 7% -->
    <defs>
     <path d="M 50.59375 61.671875 
Q 40.046875 45.5625 35.6875 36.421875 
Q 31.34375 27.296875 29.171875 18.40625 
Q 27 9.515625 27 0 
L 17.828125 0 
Q 17.828125 13.1875 23.40625 27.75 
Q 29 42.328125 42.09375 61.328125 
L 5.125 61.328125 
L 5.125 68.796875 
L 50.59375 68.796875 
z
" id="LiberationSans-37"/>
    </defs>
    <g style="fill:#262626;" transform="translate(695.607946 552.605614)scale(0.18 -0.18)">
     <use xlink:href="#LiberationSans-37"/>
     <use x="55.615234" xlink:href="#LiberationSans-25"/>
    </g>
   </g>
   <g id="text_9">
    <!-- indian -->
    <g style="fill:#262626;" transform="translate(836.273557 535.020984)rotate(-311.24688)scale(0.165 -0.165)">
     <use xlink:href="#LiberationSans-69"/>
     <use x="22.216797" xlink:href="#LiberationSans-6e"/>
     <use x="77.832031" xlink:href="#LiberationSans-64"/>
     <use x="133.447266" xlink:href="#LiberationSans-69"/>
     <use x="155.664062" xlink:href="#LiberationSans-61"/>
     <use x="211.279297" xlink:href="#LiberationSans-6e"/>
    </g>
   </g>
   <g id="text_10">
    <!-- 5% -->
    <defs>
     <path d="M 51.421875 22.40625 
Q 51.421875 11.53125 44.953125 5.265625 
Q 38.484375 -0.984375 27 -0.984375 
Q 17.390625 -0.984375 11.46875 3.21875 
Q 5.5625 7.421875 4 15.375 
L 12.890625 16.40625 
Q 15.671875 6.203125 27.203125 6.203125 
Q 34.28125 6.203125 38.28125 10.46875 
Q 42.28125 14.75 42.28125 22.21875 
Q 42.28125 28.71875 38.25 32.71875 
Q 34.234375 36.71875 27.390625 36.71875 
Q 23.828125 36.71875 20.75 35.59375 
Q 17.671875 34.46875 14.59375 31.78125 
L 6 31.78125 
L 8.296875 68.796875 
L 47.40625 68.796875 
L 47.40625 61.328125 
L 16.3125 61.328125 
L 14.984375 39.5 
Q 20.703125 43.890625 29.203125 43.890625 
Q 39.359375 43.890625 45.390625 37.9375 
Q 51.421875 31.984375 51.421875 22.40625 
z
" id="LiberationSans-35"/>
    </defs>
    <g style="fill:#262626;" transform="translate(797.146414 515.443351)scale(0.18 -0.18)">
     <use xlink:href="#LiberationSans-35"/>
     <use x="55.615234" xlink:href="#LiberationSans-25"/>
    </g>
   </g>
   <g id="text_11">
    <!-- australian -->
    <defs>
     <path d="M 6.9375 0 
L 6.9375 40.53125 
Q 6.9375 46.09375 6.640625 52.828125 
L 14.9375 52.828125 
Q 15.328125 43.84375 15.328125 42.046875 
L 15.53125 42.046875 
Q 17.625 48.828125 20.359375 51.3125 
Q 23.09375 53.8125 28.078125 53.8125 
Q 29.828125 53.8125 31.640625 53.328125 
L 31.640625 45.265625 
Q 29.890625 45.75 26.953125 45.75 
Q 21.484375 45.75 18.59375 41.03125 
Q 15.71875 36.328125 15.71875 27.546875 
L 15.71875 0 
z
" id="LiberationSans-72"/>
    </defs>
    <g style="fill:#262626;" transform="translate(897.119626 494.74765)rotate(-325.683288)scale(0.165 -0.165)">
     <use xlink:href="#LiberationSans-61"/>
     <use x="55.615234" xlink:href="#LiberationSans-75"/>
     <use x="111.230469" xlink:href="#LiberationSans-73"/>
     <use x="161.230469" xlink:href="#LiberationSans-74"/>
     <use x="189.013672" xlink:href="#LiberationSans-72"/>
     <use x="222.314453" xlink:href="#LiberationSans-61"/>
     <use x="277.929688" xlink:href="#LiberationSans-6c"/>
     <use x="300.146484" xlink:href="#LiberationSans-69"/>
     <use x="322.363281" xlink:href="#LiberationSans-61"/>
     <use x="377.978516" xlink:href="#LiberationSans-6e"/>
    </g>
   </g>
   <g id="text_12">
    <!-- 3% -->
    <defs>
     <path d="M 51.21875 19 
Q 51.21875 9.46875 45.15625 4.234375 
Q 39.109375 -0.984375 27.875 -0.984375 
Q 17.4375 -0.984375 11.203125 3.734375 
Q 4.984375 8.453125 3.8125 17.671875 
L 12.890625 18.5 
Q 14.65625 6.296875 27.875 6.296875 
Q 34.515625 6.296875 38.296875 9.5625 
Q 42.09375 12.84375 42.09375 19.28125 
Q 42.09375 24.90625 37.765625 28.046875 
Q 33.453125 31.203125 25.296875 31.203125 
L 20.3125 31.203125 
L 20.3125 38.8125 
L 25.09375 38.8125 
Q 32.328125 38.8125 36.296875 41.96875 
Q 40.28125 45.125 40.28125 50.6875 
Q 40.28125 56.203125 37.03125 59.390625 
Q 33.796875 62.59375 27.390625 62.59375 
Q 21.578125 62.59375 17.984375 59.609375 
Q 14.40625 56.640625 13.8125 51.21875 
L 4.984375 51.90625 
Q 5.953125 60.359375 11.984375 65.09375 
Q 18.015625 69.828125 27.484375 69.828125 
Q 37.84375 69.828125 43.578125 65.015625 
Q 49.3125 60.203125 49.3125 51.609375 
Q 49.3125 45.015625 45.625 40.890625 
Q 41.9375 36.765625 34.90625 35.296875 
L 34.90625 35.109375 
Q 42.625 34.28125 46.921875 29.9375 
Q 51.21875 25.59375 51.21875 19 
z
" id="LiberationSans-33"/>
    </defs>
    <g style="fill:#262626;" transform="translate(852.685865 477.267813)scale(0.18 -0.18)">
     <use xlink:href="#LiberationSans-33"/>
     <use x="55.615234" xlink:href="#LiberationSans-25"/>
    </g>
   </g>
   <g id="text_13">
    <!-- french -->
    <defs>
     <path d="M 17.625 46.4375 
L 17.625 0 
L 8.84375 0 
L 8.84375 46.4375 
L 1.421875 46.4375 
L 1.421875 52.828125 
L 8.84375 52.828125 
L 8.84375 58.796875 
Q 8.84375 66.015625 12.015625 69.1875 
Q 15.1875 72.359375 21.734375 72.359375 
Q 25.390625 72.359375 27.9375 71.78125 
L 27.9375 65.09375 
Q 25.734375 65.484375 24.03125 65.484375 
Q 20.65625 65.484375 19.140625 63.765625 
Q 17.625 62.0625 17.625 57.5625 
L 17.625 52.828125 
L 27.9375 52.828125 
L 27.9375 46.4375 
z
" id="LiberationSans-66"/>
     <path d="M 15.484375 43.796875 
Q 18.3125 48.96875 22.28125 51.390625 
Q 26.265625 53.8125 32.375 53.8125 
Q 40.96875 53.8125 45.046875 49.53125 
Q 49.125 45.265625 49.125 35.203125 
L 49.125 0 
L 40.28125 0 
L 40.28125 33.5 
Q 40.28125 39.0625 39.25 41.765625 
Q 38.234375 44.484375 35.890625 45.75 
Q 33.546875 47.015625 29.390625 47.015625 
Q 23.1875 47.015625 19.453125 42.71875 
Q 15.71875 38.421875 15.71875 31.15625 
L 15.71875 0 
L 6.9375 0 
L 6.9375 72.46875 
L 15.71875 72.46875 
L 15.71875 53.609375 
Q 15.71875 50.640625 15.546875 47.453125 
Q 15.375 44.28125 15.328125 43.796875 
z
" id="LiberationSans-68"/>
    </defs>
    <g style="fill:#262626;" transform="translate(930.792345 457.901973)rotate(-336.743904)scale(0.165 -0.165)">
     <use xlink:href="#LiberationSans-66"/>
     <use x="27.783203" xlink:href="#LiberationSans-72"/>
     <use x="61.083984" xlink:href="#LiberationSans-65"/>
     <use x="116.699219" xlink:href="#LiberationSans-6e"/>
     <use x="172.314453" xlink:href="#LiberationSans-63"/>
     <use x="222.314453" xlink:href="#LiberationSans-68"/>
    </g>
   </g>
   <g id="text_14">
    <!-- 3% -->
    <g style="fill:#262626;" transform="translate(883.622322 442.985424)scale(0.18 -0.18)">
     <use xlink:href="#LiberationSans-33"/>
     <use x="55.615234" xlink:href="#LiberationSans-25"/>
    </g>
   </g>
   <g id="text_15">
    <!-- uk_and_ireland -->
    <defs>
     <path d="M 39.84375 0 
L 21.96875 24.125 
L 15.53125 18.796875 
L 15.53125 0 
L 6.734375 0 
L 6.734375 72.46875 
L 15.53125 72.46875 
L 15.53125 27.203125 
L 38.71875 52.828125 
L 49.03125 52.828125 
L 27.59375 30.125 
L 50.140625 0 
z
" id="LiberationSans-6b"/>
     <path d="M -1.515625 -19.875 
L -1.515625 -13.53125 
L 56.734375 -13.53125 
L 56.734375 -19.875 
z
" id="LiberationSans-5f"/>
    </defs>
    <g style="fill:#262626;" transform="translate(950.829241 420.141226)rotate(-347.067145)scale(0.165 -0.165)">
     <use xlink:href="#LiberationSans-75"/>
     <use x="55.615234" xlink:href="#LiberationSans-6b"/>
     <use x="105.615234" xlink:href="#LiberationSans-5f"/>
     <use x="161.230469" xlink:href="#LiberationSans-61"/>
     <use x="216.845703" xlink:href="#LiberationSans-6e"/>
     <use x="272.460938" xlink:href="#LiberationSans-64"/>
     <use x="328.076172" xlink:href="#LiberationSans-5f"/>
     <use x="383.691406" xlink:href="#LiberationSans-69"/>
     <use x="405.908203" xlink:href="#LiberationSans-72"/>
     <use x="439.208984" xlink:href="#LiberationSans-65"/>
     <use x="494.824219" xlink:href="#LiberationSans-6c"/>
     <use x="517.041016" xlink:href="#LiberationSans-61"/>
     <use x="572.65625" xlink:href="#LiberationSans-6e"/>
     <use x="628.271484" xlink:href="#LiberationSans-64"/>
    </g>
   </g>
   <g id="text_16">
    <!-- 3% -->
    <g style="fill:#262626;" transform="translate(902.249068 408.275388)scale(0.18 -0.18)">
     <use xlink:href="#LiberationSans-33"/>
     <use x="55.615234" xlink:href="#LiberationSans-25"/>
    </g>
   </g>
   <g id="text_17">
    <!-- eastern_europe -->
    <defs>
     <path d="M 51.421875 26.46875 
Q 51.421875 12.59375 45.3125 5.796875 
Q 39.203125 -0.984375 27.59375 -0.984375 
Q 16.015625 -0.984375 10.109375 6.078125 
Q 4.203125 13.140625 4.203125 26.46875 
Q 4.203125 53.8125 27.875 53.8125 
Q 39.984375 53.8125 45.703125 47.140625 
Q 51.421875 40.484375 51.421875 26.46875 
z
M 42.1875 26.46875 
Q 42.1875 37.40625 38.9375 42.359375 
Q 35.6875 47.3125 28.03125 47.3125 
Q 20.3125 47.3125 16.859375 42.25 
Q 13.421875 37.203125 13.421875 26.46875 
Q 13.421875 16.015625 16.8125 10.765625 
Q 20.21875 5.515625 27.484375 5.515625 
Q 35.40625 5.515625 38.796875 10.59375 
Q 42.1875 15.671875 42.1875 26.46875 
z
" id="LiberationSans-6f"/>
     <path d="M 51.421875 26.65625 
Q 51.421875 -0.984375 31.984375 -0.984375 
Q 19.78125 -0.984375 15.578125 8.203125 
L 15.328125 8.203125 
Q 15.53125 7.8125 15.53125 -0.09375 
L 15.53125 -20.75 
L 6.734375 -20.75 
L 6.734375 42.046875 
Q 6.734375 50.203125 6.453125 52.828125 
L 14.9375 52.828125 
Q 14.984375 52.640625 15.078125 51.4375 
Q 15.1875 50.25 15.3125 47.75 
Q 15.4375 45.265625 15.4375 44.34375 
L 15.625 44.34375 
Q 17.96875 49.21875 21.828125 51.484375 
Q 25.6875 53.765625 31.984375 53.765625 
Q 41.75 53.765625 46.578125 47.21875 
Q 51.421875 40.671875 51.421875 26.65625 
z
M 42.1875 26.46875 
Q 42.1875 37.5 39.203125 42.234375 
Q 36.234375 46.96875 29.734375 46.96875 
Q 24.515625 46.96875 21.5625 44.765625 
Q 18.609375 42.578125 17.0625 37.90625 
Q 15.53125 33.25 15.53125 25.78125 
Q 15.53125 15.375 18.84375 10.4375 
Q 22.171875 5.515625 29.640625 5.515625 
Q 36.1875 5.515625 39.1875 10.328125 
Q 42.1875 15.140625 42.1875 26.46875 
z
" id="LiberationSans-70"/>
    </defs>
    <g style="fill:#262626;" transform="translate(959.119098 381.590483)rotate(-357.079307)scale(0.165 -0.165)">
     <use xlink:href="#LiberationSans-65"/>
     <use x="55.615234" xlink:href="#LiberationSans-61"/>
     <use x="111.230469" xlink:href="#LiberationSans-73"/>
     <use x="161.230469" xlink:href="#LiberationSans-74"/>
     <use x="189.013672" xlink:href="#LiberationSans-65"/>
     <use x="244.628906" xlink:href="#LiberationSans-72"/>
     <use x="277.929688" xlink:href="#LiberationSans-6e"/>
     <use x="333.544922" xlink:href="#LiberationSans-5f"/>
     <use x="389.160156" xlink:href="#LiberationSans-65"/>
     <use x="444.775391" xlink:href="#LiberationSans-75"/>
     <use x="500.390625" xlink:href="#LiberationSans-72"/>
     <use x="533.691406" xlink:href="#LiberationSans-6f"/>
     <use x="589.306641" xlink:href="#LiberationSans-70"/>
     <use x="644.921875" xlink:href="#LiberationSans-65"/>
    </g>
   </g>
   <g id="text_18">
    <!-- 3% -->
    <g style="fill:#262626;" transform="translate(910.271222 373.195423)scale(0.18 -0.18)">
     <use xlink:href="#LiberationSans-33"/>
     <use x="55.615234" xlink:href="#LiberationSans-25"/>
    </g>
   </g>
   <g id="text_19">
    <!-- greek -->
    <defs>
     <path d="M 26.765625 -20.75 
Q 18.109375 -20.75 12.984375 -17.359375 
Q 7.859375 -13.96875 6.390625 -7.71875 
L 15.234375 -6.453125 
Q 16.109375 -10.109375 19.109375 -12.078125 
Q 22.125 -14.0625 27 -14.0625 
Q 40.140625 -14.0625 40.140625 1.3125 
L 40.140625 9.8125 
L 40.046875 9.8125 
Q 37.546875 4.734375 33.203125 2.171875 
Q 28.859375 -0.390625 23.046875 -0.390625 
Q 13.328125 -0.390625 8.765625 6.046875 
Q 4.203125 12.5 4.203125 26.3125 
Q 4.203125 40.328125 9.109375 46.984375 
Q 14.015625 53.65625 24.03125 53.65625 
Q 29.640625 53.65625 33.765625 51.09375 
Q 37.890625 48.53125 40.140625 43.796875 
L 40.234375 43.796875 
Q 40.234375 45.265625 40.421875 48.875 
Q 40.625 52.484375 40.828125 52.828125 
L 49.171875 52.828125 
Q 48.875 50.203125 48.875 41.890625 
L 48.875 1.515625 
Q 48.875 -20.75 26.765625 -20.75 
z
M 40.140625 26.421875 
Q 40.140625 32.859375 38.375 37.515625 
Q 36.625 42.1875 33.421875 44.65625 
Q 30.21875 47.125 26.171875 47.125 
Q 19.4375 47.125 16.359375 42.234375 
Q 13.28125 37.359375 13.28125 26.421875 
Q 13.28125 15.578125 16.15625 10.84375 
Q 19.046875 6.109375 26.03125 6.109375 
Q 30.171875 6.109375 33.390625 8.546875 
Q 36.625 10.984375 38.375 15.546875 
Q 40.140625 20.125 40.140625 26.421875 
z
" id="LiberationSans-67"/>
    </defs>
    <g style="fill:#262626;" transform="translate(958.267488 328.362185)rotate(-6.757345)scale(0.165 -0.165)">
     <use xlink:href="#LiberationSans-67"/>
     <use x="55.615234" xlink:href="#LiberationSans-72"/>
     <use x="88.916016" xlink:href="#LiberationSans-65"/>
     <use x="144.53125" xlink:href="#LiberationSans-65"/>
     <use x="200.146484" xlink:href="#LiberationSans-6b"/>
    </g>
   </g>
   <g id="text_20">
    <!-- 3% -->
    <g style="fill:#262626;" transform="translate(908.388796 338.97534)scale(0.18 -0.18)">
     <use xlink:href="#LiberationSans-33"/>
     <use x="55.615234" xlink:href="#LiberationSans-25"/>
    </g>
   </g>
   <g id="text_21">
    <!-- chinese -->
    <g style="fill:#262626;" transform="translate(949.229969 294.934156)rotate(-15.479102)scale(0.165 -0.165)">
     <use xlink:href="#LiberationSans-63"/>
     <use x="50" xlink:href="#LiberationSans-68"/>
     <use x="105.615234" xlink:href="#LiberationSans-69"/>
     <use x="127.832031" xlink:href="#LiberationSans-6e"/>
     <use x="183.447266" xlink:href="#LiberationSans-65"/>
     <use x="239.0625" xlink:href="#LiberationSans-73"/>
     <use x="289.0625" xlink:href="#LiberationSans-65"/>
    </g>
   </g>
   <g id="text_22">
    <!-- 2% -->
    <g style="fill:#262626;" transform="translate(898.614248 308.691596)scale(0.18 -0.18)">
     <use xlink:href="#LiberationSans-32"/>
     <use x="55.615234" xlink:href="#LiberationSans-25"/>
    </g>
   </g>
   <g id="text_23">
    <!-- german -->
    <g style="fill:#262626;" transform="translate(933.781131 265.761274)rotate(-23.417398)scale(0.165 -0.165)">
     <use xlink:href="#LiberationSans-67"/>
     <use x="55.615234" xlink:href="#LiberationSans-65"/>
     <use x="111.230469" xlink:href="#LiberationSans-72"/>
     <use x="144.53125" xlink:href="#LiberationSans-6d"/>
     <use x="227.832031" xlink:href="#LiberationSans-61"/>
     <use x="283.447266" xlink:href="#LiberationSans-6e"/>
    </g>
   </g>
   <g id="text_24">
    <!-- 2% -->
    <g style="fill:#262626;" transform="translate(883.250608 282.199354)scale(0.18 -0.18)">
     <use xlink:href="#LiberationSans-32"/>
     <use x="55.615234" xlink:href="#LiberationSans-25"/>
    </g>
   </g>
   <g id="text_25">
    <!-- caribbean -->
    <defs>
     <path d="M 51.421875 26.65625 
Q 51.421875 -0.984375 31.984375 -0.984375 
Q 25.984375 -0.984375 22 1.1875 
Q 18.015625 3.375 15.53125 8.203125 
L 15.4375 8.203125 
Q 15.4375 6.6875 15.234375 3.578125 
Q 15.046875 0.484375 14.9375 0 
L 6.453125 0 
Q 6.734375 2.640625 6.734375 10.890625 
L 6.734375 72.46875 
L 15.53125 72.46875 
L 15.53125 51.8125 
Q 15.53125 48.640625 15.328125 44.34375 
L 15.53125 44.34375 
Q 17.96875 49.421875 22 51.609375 
Q 26.03125 53.8125 31.984375 53.8125 
Q 42 53.8125 46.703125 47.0625 
Q 51.421875 40.328125 51.421875 26.65625 
z
M 42.1875 26.375 
Q 42.1875 37.453125 39.25 42.234375 
Q 36.328125 47.015625 29.734375 47.015625 
Q 22.3125 47.015625 18.921875 41.9375 
Q 15.53125 36.859375 15.53125 25.828125 
Q 15.53125 15.4375 18.84375 10.46875 
Q 22.171875 5.515625 29.640625 5.515625 
Q 36.28125 5.515625 39.234375 10.421875 
Q 42.1875 15.328125 42.1875 26.375 
z
" id="LiberationSans-62"/>
    </defs>
    <g style="fill:#262626;" transform="translate(913.095115 239.777634)rotate(-30.929399)scale(0.165 -0.165)">
     <use xlink:href="#LiberationSans-63"/>
     <use x="50" xlink:href="#LiberationSans-61"/>
     <use x="105.615234" xlink:href="#LiberationSans-72"/>
     <use x="138.916016" xlink:href="#LiberationSans-69"/>
     <use x="161.132812" xlink:href="#LiberationSans-62"/>
     <use x="216.748047" xlink:href="#LiberationSans-62"/>
     <use x="272.363281" xlink:href="#LiberationSans-65"/>
     <use x="327.978516" xlink:href="#LiberationSans-61"/>
     <use x="383.59375" xlink:href="#LiberationSans-6e"/>
    </g>
   </g>
   <g id="text_26">
    <!-- 2% -->
    <g style="fill:#262626;" transform="translate(863.30765 258.545232)scale(0.18 -0.18)">
     <use xlink:href="#LiberationSans-32"/>
     <use x="55.615234" xlink:href="#LiberationSans-25"/>
    </g>
   </g>
   <g id="text_27">
    <!-- thai -->
    <g style="fill:#262626;" transform="translate(890.760752 218.960833)rotate(-37.41599)scale(0.165 -0.165)">
     <use xlink:href="#LiberationSans-74"/>
     <use x="27.783203" xlink:href="#LiberationSans-68"/>
     <use x="83.398438" xlink:href="#LiberationSans-61"/>
     <use x="139.013672" xlink:href="#LiberationSans-69"/>
    </g>
   </g>
   <g id="text_28">
    <!-- 2% -->
    <g style="fill:#262626;" transform="translate(842.123606 239.546417)scale(0.18 -0.18)">
     <use xlink:href="#LiberationSans-32"/>
     <use x="55.615234" xlink:href="#LiberationSans-25"/>
    </g>
   </g>
   <g id="text_29">
    <!-- african -->
    <g style="fill:#262626;" transform="translate(868.32767 202.383008)rotate(-43.026948)scale(0.165 -0.165)">
     <use xlink:href="#LiberationSans-61"/>
     <use x="55.615234" xlink:href="#LiberationSans-66"/>
     <use x="83.398438" xlink:href="#LiberationSans-72"/>
     <use x="116.699219" xlink:href="#LiberationSans-69"/>
     <use x="138.916016" xlink:href="#LiberationSans-63"/>
     <use x="188.916016" xlink:href="#LiberationSans-61"/>
     <use x="244.53125" xlink:href="#LiberationSans-6e"/>
    </g>
   </g>
   <g id="text_30">
    <!-- 2% -->
    <g style="fill:#262626;" transform="translate(821.054212 224.37742)scale(0.18 -0.18)">
     <use xlink:href="#LiberationSans-32"/>
     <use x="55.615234" xlink:href="#LiberationSans-25"/>
    </g>
   </g>
   <g id="text_31">
    <!-- south_american -->
    <g style="fill:#262626;" transform="translate(843.933848 187.680316)rotate(-48.488127)scale(0.165 -0.165)">
     <use xlink:href="#LiberationSans-73"/>
     <use x="50" xlink:href="#LiberationSans-6f"/>
     <use x="105.615234" xlink:href="#LiberationSans-75"/>
     <use x="161.230469" xlink:href="#LiberationSans-74"/>
     <use x="189.013672" xlink:href="#LiberationSans-68"/>
     <use x="244.628906" xlink:href="#LiberationSans-5f"/>
     <use x="300.244141" xlink:href="#LiberationSans-61"/>
     <use x="355.859375" xlink:href="#LiberationSans-6d"/>
     <use x="439.160156" xlink:href="#LiberationSans-65"/>
     <use x="494.775391" xlink:href="#LiberationSans-72"/>
     <use x="528.076172" xlink:href="#LiberationSans-69"/>
     <use x="550.292969" xlink:href="#LiberationSans-63"/>
     <use x="600.292969" xlink:href="#LiberationSans-61"/>
     <use x="655.908203" xlink:href="#LiberationSans-6e"/>
    </g>
   </g>
   <g id="text_32">
    <!-- 2% -->
    <g style="fill:#262626;" transform="translate(798.303127 210.886488)scale(0.18 -0.18)">
     <use xlink:href="#LiberationSans-32"/>
     <use x="55.615234" xlink:href="#LiberationSans-25"/>
    </g>
   </g>
   <g id="text_33">
    <!-- Others -->
    <defs>
     <path d="M 73 34.71875 
Q 73 23.921875 68.875 15.8125 
Q 64.75 7.71875 57.03125 3.359375 
Q 49.3125 -0.984375 38.8125 -0.984375 
Q 28.21875 -0.984375 20.53125 3.3125 
Q 12.84375 7.625 8.78125 15.75 
Q 4.734375 23.875 4.734375 34.71875 
Q 4.734375 51.21875 13.765625 60.515625 
Q 22.796875 69.828125 38.921875 69.828125 
Q 49.421875 69.828125 57.125 65.640625 
Q 64.84375 61.46875 68.921875 53.515625 
Q 73 45.5625 73 34.71875 
z
M 63.484375 34.71875 
Q 63.484375 47.5625 57.0625 54.875 
Q 50.640625 62.203125 38.921875 62.203125 
Q 27.09375 62.203125 20.640625 54.96875 
Q 14.203125 47.75 14.203125 34.71875 
Q 14.203125 21.78125 20.71875 14.1875 
Q 27.25 6.59375 38.8125 6.59375 
Q 50.734375 6.59375 57.109375 13.9375 
Q 63.484375 21.296875 63.484375 34.71875 
z
" id="LiberationSans-4f"/>
    </defs>
    <g style="fill:#262626;" transform="translate(724.197659 145.12029)rotate(-70.609359)scale(0.165 -0.165)">
     <use xlink:href="#LiberationSans-4f"/>
     <use x="77.783203" xlink:href="#LiberationSans-74"/>
     <use x="105.566406" xlink:href="#LiberationSans-68"/>
     <use x="161.181641" xlink:href="#LiberationSans-65"/>
     <use x="216.796875" xlink:href="#LiberationSans-72"/>
     <use x="250.097656" xlink:href="#LiberationSans-73"/>
    </g>
   </g>
   <g id="text_34">
    <!-- 11% -->
    <g style="fill:#262626;" transform="translate(683.059124 171.4223)scale(0.18 -0.18)">
     <use xlink:href="#LiberationSans-31"/>
     <use x="55.505859" xlink:href="#LiberationSans-31"/>
     <use x="111.121094" xlink:href="#LiberationSans-25"/>
    </g>
   </g>
  </g>
 </g>
</svg>
